<?xml version="1.0" encoding="iso-8859-1"?>
<!-- Uploaded to: SVG Repo, www.svgrepo.com, Generator: SVG Repo Mixer Tools -->
<svg fill="#000000" height="800px" width="800px" version="1.1" id="Layer_1" xmlns="http://www.w3.org/2000/svg" xmlns:xlink="http://www.w3.org/1999/xlink" 
	 viewBox="0 0 512 512" xml:space="preserve">
<g>
	<g>
		<path d="M404.191,231.604c-67.583,0-123.502,53.403-148.191,81.424c-24.688-28.02-80.608-81.424-148.189-81.424
			C48.364,231.604,0,279.968,0,339.414c0,59.446,48.364,107.809,107.81,107.809c67.583,0,123.501-53.403,148.19-81.422
			c24.688,28.02,80.607,81.422,148.191,81.422c59.447,0,107.809-48.363,107.809-107.809S463.637,231.604,404.191,231.604z
			 M178.262,360.821c-26.33,22.4-47.886,27.103-61.332,27.103c-26.748,0-48.509-21.761-48.509-48.509s21.761-48.51,48.509-48.51
			c37.421,0,70.352,34.052,82.656,48.524C195.053,344.775,187.698,352.793,178.262,360.821z M395.07,387.924
			c-13.447,0-35.002-4.701-61.332-27.103c-9.436-8.028-16.791-16.047-21.324-21.392c12.304-14.472,45.235-48.524,82.656-48.524
			c26.748,0,48.509,21.761,48.509,48.51C443.579,366.163,421.818,387.924,395.07,387.924z"/>
	</g>
</g>
<g>
	<g>
		<path d="M295.152,64.776c-15.577,0-29.558,6.806-39.152,17.598c-9.596-10.792-23.575-17.598-39.152-17.598
			c-28.929,0-52.381,23.452-52.381,52.382c0,32.519,39.225,64.333,59.63,80.116C237.31,207.494,256,219.625,256,219.625
			s18.69-12.131,31.903-22.351c20.405-15.782,59.63-47.597,59.63-80.116C347.533,88.228,324.082,64.776,295.152,64.776z"/>
	</g>
</g>
</svg>